<?xml version="1.0" encoding="utf-8"?>
<!-- Generator: Adobe Illustrator 22.0.0, SVG Export Plug-In . SVG Version: 6.00 Build 0)  -->
<svg version="1.1" id="Layer_1" xmlns="http://www.w3.org/2000/svg" xmlns:xlink="http://www.w3.org/1999/xlink" x="0px" y="0px"
	 viewBox="0 0 8192.1 3187.2" style="enable-background:new 0 0 8192.1 3187.2;" xml:space="preserve">
<g>
	<path d="M0,509.8c8.2-0.1,16.3-0.4,24.5-0.4c669.7,0,1339.4,0,2009.1,0c6.3,0,12.6-0.1,19.3-0.2c2.3-5.6,4.4-10.6,6.3-15.7
		c32.3-84.3,67-167.4,106.7-248.5c17.3-35.5,35.5-70.5,56.7-103.7c11-17.1,22.9-33.7,35-50.2c21.9-29.3,50.7-48.7,85.4-59.9
		c27.2-8.8,55-14.9,83.3-19.4c80.5-12.9,161.6-13.6,242.8-10.2c47.1,2,94,7.1,139.9,18.4c14.9,3.6,29.6,8.4,44.2,13.4
		c23.8,8.1,43.2,22.5,59.3,41.7c12.5,15,23.9,30.8,34.3,47.2c25.5,40.3,47.2,82.6,67.7,125.6c38.2,80.3,71.7,162.4,103.4,245.5
		c1.9,5,4,10,6.1,15.1c14,0,27.1-0.2,40.2,0c57.1,0.9,114.3,1.8,171.3,3.1c26.3,0.6,52.6,1.9,78.8,3.5c32.6,2,65.1,4.4,97.7,7.3
		c29.8,2.6,59.6,5.5,89.2,9.2c86.9,10.6,173,25,256.7,51.8c27.7,8.9,54.7,19.2,80.6,32.5c17,8.6,33.2,18.6,48.5,29.9
		c18.2,13.4,32.2,30.5,43.5,49.9c14.2,24.4,24.9,50.3,34.2,76.9c15.8,45,27.6,91.1,37.8,137.6c14.9,67.3,26.4,135.2,36.2,203.4
		c8.3,57.9,15.9,115.8,21.6,174c6.3,64,12.5,128.1,17.8,192.3c3.9,47.4,6.8,95,9.3,142.5c3.6,69.3,7.3,138.6,9.6,207.9
		c2.2,63.8,3.1,127.8,3.6,191.7c0.5,60.8,0.4,121.5-0.5,182.3c-1.3,83-3.8,165.9-9.6,248.7c-2.9,41.2-5.4,82.3-9.3,123.4
		c-7.5,80.4-17.5,160.4-34.8,239.3c-7.8,35.5-16.7,70.6-30.1,104.4c-6.1,15.1-13.2,29.7-20.6,44.3c-9,17.8-22.7,31.6-38.9,42.9
		c-16.1,11.2-33.5,20-51.4,27.6c-36,15.1-73.5,25.9-111.3,35.1c-52.4,12.7-105.4,22.9-158.8,30.5c-51.6,7.3-103.2,14.5-154.9,20.7
		c-40.4,4.9-81.2,8.4-121.8,12.1c-50.6,4.4-101.1,8.7-151.8,12.5c-35.3,2.6-70.6,4.4-105.8,6.5c-40.7,2.4-81.4,4.8-122.2,6.9
		c-28.1,1.5-56.1,2.4-84.3,3.5c-43.5,1.7-87,3.6-130.5,4.8c-63.5,1.7-126.9,2.6-190.4,4.5c-40.8,1.2-81.6,0.9-122.3-0.9
		c-37.2-1.6-74.1-5.4-110.9-10.4c-72.5-10.2-143.3-27-212.5-50.8c-159.3-54.6-300.5-139.3-423.2-254.7
		c-154.6-145.5-262.5-320.2-323.1-523.8c-17.2-57.9-29.5-116.8-37.4-176.7c-8.1-61.3-11.6-122.7-10-184.5
		c4.7-171.5,44.2-334.6,120-488.6c59.7-121.2,138.1-228.6,234.9-322.9c3.2-3.1,6.3-6.4,9.8-10c-2.9-12.6-5.7-24.9-8.7-37.2
		c-11.1-45.8-21.4-91.8-35.4-136.9c-15.1-49-33.4-96.8-57.4-142.2c-13.6-25.7-29.1-50.2-46.8-73.3c-37-48.4-83.9-83.3-140.8-105.2
		c-36.1-13.8-73.4-23.1-111.4-29.7c-51.1-8.8-102.7-11.9-154.4-12.7c-40.4-0.6-80.7-0.5-121.1-0.5c-119.7-0.1-239.4,0-359.1,0
		c-5.4,0-10.8,0.2-16.9,0.3c-0.5,3.1-1.3,5.6-1.5,8.2c-0.3,3.6-0.1,7.3-0.1,10.9c0,373.6,0,747.3,0,1120.8c0,5.8-0.5,11.7,0.8,18
		c3.5,0.4,6.6,0.9,9.6,0.9c49-0.3,97.9,0.4,146.9-1.2c49.4-1.5,98.4-7.2,146.8-18c44.6-10,81.3-32.6,111.7-65.9
		c37.5-41.2,64.3-88.6,82-141.3c13.9-41.4,23.1-83.8,29.9-126.9c7.1-44.8,11.7-89.9,14.3-135.1c0.3-4,1-8,1.5-12.2
		c9.3-2.7,18.4-1.2,27.4-1.4c9.5-0.3,19-0.2,28.6,0c8.9,0.1,18-0.6,27,0.6c0.5,2.7,1.1,4.5,1.1,6.3c0,373.6,0,747.2-0.1,1120.8
		c0,1.3-0.8,2.4-1.2,3.6c-10.3,1.7-67.7,2-81.5,0.4c-3-3.8-2.4-8.5-2.5-13c-2.3-44.8-6.2-89.5-11.7-134.1
		c-7.3-58.5-17.3-116.5-35.5-172.9c-13.1-40.8-31.5-79.2-57-113.7c-8.1-10.9-17-21.3-26.5-30.9c-23.3-23.9-51.2-40-83.6-48.4
		c-32.1-8.3-64.8-13.3-97.7-16.6c-49.7-4.9-99.5-6.1-149.5-5.7c-21.8,0.1-43.5,0-65.3,0c-4.4,0-9,0-14.1,0c-0.5,3.4-1.3,5.9-1.5,8.4
		c-0.2,3.6-0.1,7.3-0.1,10.9c0,393.6,0,787.2,0,1180.7c0,5.8-0.7,11.7,1.2,18.2c5.2,0.2,10.1,0.5,15,0.5c41.7,0,83.4,0,125.2,0
		c77.5,0,155.1,0,232.6,0c5,0,9.9,0,15.2,0c0.6,3.4,1.5,6.1,1.5,8.6c0.1,29,0.1,58,0,87.1c0,2.6-1,5.3-1.5,7.9
		c-378.2,0-756.4,0-1134.5,0c0-34.6,0-68.9,0-103.4c6.8-0.1,13.6-0.2,20.4-0.2c90.2,0,180.4,0,270.6,0c17.2,0,34.5,0,51.7,0
		c3,0,6.1-0.5,9.3-0.8c1.8-7,1.1-13.3,1.1-19.6c0-810.5,0-1620.9,0-2431.4c0-4.1,0.2-8.2-0.1-12.2c-0.2-2.5-1.1-5.1-1.8-8.3
		c-6,0-11.3,0-16.8,0c-105.2,0-210.3,0-315.5,0c-6.3,0-12.7-0.4-19-0.5C0,576.9,0,543.4,0,509.8z M3024.1,3099c9-0.5,18-1,26.8-1.5
		c43-2.1,86.1-4.1,129.1-6.3c18.1-0.9,36.2-2.2,54.3-3.4c33-2.3,66-4.5,99-7c27.6-2,55.1-3.9,82.7-6.3c33.8-3,67.7-6.3,101.5-9.8
		c28.8-2.9,57.8-5.5,86.5-9.3c43.2-5.5,86.2-11.6,129.2-18c51.5-7.6,102.8-17.4,153.3-30.1c33.8-8.5,67.5-18,99.3-32.5
		c11.9-5.4,23.3-12.1,34.6-18.8c9.5-5.7,17-13.8,21.7-23.9c6-12.7,12.2-25.3,17.2-38.4c16.8-43.8,26.5-89.4,34.9-135.4
		c12.8-69.6,21-139.8,26.8-210.3c4.4-52.9,8-105.7,10.7-158.7c3.9-76.5,6.1-153.1,6.6-229.7c1.2-162.8-1.5-325.5-10.8-488.1
		c-3.4-58-6.6-115.9-11.1-173.7c-4.7-61.5-10.2-122.9-16.3-184.2c-5-50.1-10.9-100-17.4-149.9c-9.2-70.1-20.3-139.9-34.6-209.2
		c-10.3-50.2-22-100-38.1-148.7c-8.3-25-17.8-49.4-30.1-72.7c-10.2-19.3-24.4-34.6-42.9-46.3c-18.9-11.8-38.7-21.7-59.4-30
		c-42.2-17-85.9-28.7-130.2-38.3c-71.4-15.5-143.7-25.1-216.4-32c-42.9-4.1-85.9-6.3-128.9-9.4c-59.8-4.2-119.5-5.4-179.4-6
		c-42.6-0.5-85.2,0.5-127.8,0.8c-4.9,0-9.9,1.2-14.6-0.8c-0.7-1.4-1.5-2.4-2-3.7c-1.5-3.8-2.8-7.6-4.3-11.4
		c-35.8-97.9-74.8-194.5-119.9-288.7c-19-39.6-39.3-78.7-63.1-115.7c-9.1-14.1-19-27.7-30.2-40.2c-6.8-7.5-14.8-13.4-24-17.3
		c-5.4-2.3-11-4.4-16.5-6.3c-29.8-10-60.7-14.7-91.7-18.7c-35.1-4.4-70.5-6.2-105.8-7c-60.4-1.4-120.5,1.6-180.4,10.2
		c-23.3,3.4-46.3,8.5-69.1,14.6c-31.7,8.4-56.3,25.8-75,52.6c-14.5,20.9-28.3,42.2-40.8,64.3c-25,44.3-47,90-67.7,136.3
		c-32.1,71.6-61.5,144.2-88.5,217.8c-1.7,4.5-2.5,9.6-6.8,13.8c-4.7,0-9.7,0-14.7,0c-57.6,0-115.2,0-172.8,0c-6.3,0-12.7-0.2-19,0.1
		c-2.5,0.1-5,1.1-8.1,1.8c5.7,162.3,11.4,324,17.1,485.7c0,0.7,1,1.4,2.6,3.5c94.4-70.8,196.9-126.9,307.9-167
		c111.6-40.3,226.7-62.9,345.3-68.4c118.2-5.4,234.5,6.5,349,36.1c114.5,29.6,221.9,75.6,322.3,138
		c100.9,62.6,190.4,138.8,268.3,228.4c77.6,89.2,140.6,187.9,188.1,296.2c83.8,191,114.2,390.6,92.6,597.8
		c-20,191.5-83.9,367.8-191.5,527.5C3442.5,2858.2,3255.7,3005.7,3024.1,3099z M2607,888.7c-615.9,0.5-1110.3,499.7-1110.8,1110
		C1495.7,2607.3,1987.7,3110,2607,3110c617.2,0,1109.7-500,1110.8-1108.5C3718.7,1388.9,3222.8,889.3,2607,888.7z"/>
	<path d="M8192,1739.6c-15.4,0.2-30.8,0.3-46.3,0.5c-19.5,0.2-39,1.3-58.1,5.1c-7.5,1.5-15,3.8-22.1,6.5c-12.5,4.7-21,13.7-26.2,26
		c-6.5,15.7-9.3,32.2-10.3,49c-1,14.9-1.4,29.9-1.4,44.9c-0.1,395.4-0.1,790.8-0.1,1186.1c0,6.3-0.2,12.6-0.3,19.4
		c-8.3,2.2-15.9,1-23.4,1.2c-8.2,0.2-16.3,0.1-24.5,0.1c-7.7,0-15.4,0-23.9,0c-2.5-3.5-5.2-7.2-7.7-10.9
		c-88.3-130.7-176.7-261.4-265.1-392.1c-180.5-267-361-534.1-541.6-801.1c-2.4-3.5-4.1-7.9-8.8-10.4c-0.6,2-1.2,3.2-1.3,4.4
		c-0.2,4.1-0.1,8.2-0.1,12.2c0,324.2,0,648.4,0,972.6c0,20.9,0,41.7,2.8,62.5c1.5,10.8,3.4,21.5,5.9,32c4.4,19,16.2,30.7,35,35.9
		c15.4,4.3,31,7,46.9,7.3c29.5,0.5,58.9,0.4,88.4,0.5c4.9,0,9.8,0.3,14.4,0.4c2.6,9.9,3.2,46.9,1.2,66.3c-2.3,0.5-4.7,1.1-7.3,1.3
		c-3.2,0.3-6.3,0.1-9.5,0.1c-134.2,0-268.4,0-402.7,0c-5.4,0-10.7-0.3-15.9-0.4c-2.4-10.2-3-48.2-1-66.4c2.7-0.5,5.7-1.3,8.7-1.3
		c19.5-0.2,39-0.1,58.5-0.2c16.4-0.1,32.6-1.6,48.5-5.7c7.8-2,15.6-4.9,22.9-8.3c9.4-4.4,15.6-12.1,19.1-21.9
		c4.1-11.6,6.3-23.7,7.8-35.8c3.5-27,4.2-54.2,5-81.4c0.3-9.5,0.2-19,0.2-28.6c0-313.3,0.1-626.7-0.1-940c0-20-0.8-39.9-2.4-59.8
		c-0.9-11.7-3.4-23.3-6.1-34.7c-3.3-14-12.5-23-26.2-26.8c-9.6-2.6-19.4-5-29.2-5.8c-16.7-1.5-33.5-2-50.2-2.4
		c-16.8-0.4-33.6,0-50.3-0.1c-4,0-8-0.4-11.7-0.5c-2.3-11.3-2.4-52.6-0.2-64.8c2.4-0.4,4.9-1,7.5-1.1c3.6-0.2,7.3-0.1,10.9-0.1
		c161.4,0,322.9,0,484.3,0c5.9,0,11.7,0,18.1,0c46.2,67.7,91.7,135.4,137.4,202.9c45.8,67.6,91.4,135.2,137.1,202.8
		c45.4,67.2,90.9,134.4,136.4,201.6c45.7,67.5,91.2,135,138.3,204.3c1.1-3.7,1.7-5.2,1.8-6.7c0.2-3.6,0.1-7.3,0.1-10.9
		c0-190.9,0-381.8,0-572.7c0-28.1-0.7-56.2-5.4-84.1c-1.6-9.8-4.3-19.4-7.2-28.9c-4.5-14.9-14.8-24.7-29-30.4
		c-12.7-5.2-26-7.7-39.5-9.3c-26.2-3-52.5-1.9-78.8-2.1c-6.7-0.1-13.5,0-20.7,0c-3-11.5-1.3-22.3-1.5-33
		c-0.3-10.3-0.1-20.8-0.1-31.8c3.3-0.7,5.7-1.5,8.3-1.7c3.6-0.3,7.3-0.1,10.9-0.1c127.9,0,255.7,0,383.6,0c5.4,0,10.8,0.5,16.2,0.8
		C8192,1696.1,8192,1717.8,8192,1739.6z"/>
	<path d="M6793.3,2361c0,63.2-4,119.2-13.4,174.8c-16,93.5-46.4,181.7-97.9,261.7c-56,86.9-128.1,157.2-217.9,208.7
		c-57.2,32.7-118.6,53.8-183.6,64.3c-53.1,8.5-106.4,9.9-160,5.6c-54.5-4.4-107.6-15.4-158.8-34.5c-82.3-30.6-152.6-79-212.5-142.8
		c-87.6-93.3-145.2-202.8-174.5-327.3c-19.9-84-26.2-169.1-22.4-255.2c2.7-62.8,11.2-124.5,28-185.1
		c44.5-160.7,136.6-287.7,273.8-381.7c67.1-46.1,141.6-74.8,221.8-88c59.9-9.8,120-11.1,180.2-2.8c82.1,11.2,157.8,39.7,227.7,84.1
		c56.2,35.7,106.6,78.4,150.5,128.6c61.1,69.8,101.4,150.8,126.4,239.7c12.1,42.8,20.2,86.4,25.3,130.6
		C6790.8,2283.5,6793,2325.6,6793.3,2361z M6407,2362.6c0-42.6,0.4-85.2-0.1-127.8c-0.9-83.9-2.2-167.7-8-251.4
		c-2.2-31.2-5.8-62.3-13.7-92.7c-9.7-37.6-24.8-72.8-48.5-104c-12-15.7-26.6-28.5-43.6-38.3c-13.1-7.5-26.8-13.2-41.4-17
		c-46.4-12.2-93.2-13.2-140-3.5c-68.9,14.2-116,54.5-140.8,120.6c-8.5,22.6-14.2,45.9-17.9,69.6c-6.2,39.9-8.6,80.3-10.2,120.5
		c-2.2,52.1-3.8,104.2-4.4,156.3c-1,81.6-1.5,163.2-1.2,244.8c0.4,100.1,1.5,200.3,7.7,300.4c2.1,33.9,5.4,67.7,13.9,100.8
		c8.8,34.6,22.3,66.9,43.1,96.2c22,31.1,51.4,51.7,87.9,62.8c31.7,9.7,64,11.9,96.8,10.9c20-0.6,39.7-3.4,58.9-8.9
		c58.9-16.9,101.4-52.7,124.8-110c2.7-6.7,5.3-13.5,7.6-20.4c10.4-30.7,15.1-62.5,18.2-94.5c4.5-46.5,6.6-93.1,8.1-139.8
		C6406.6,2545.7,6408,2454.2,6407,2362.6z"/>
	<path d="M4687.1,1741.9c-1.4-0.7-2.2-1.5-3-1.5c-32.7-1.4-65.2,0.4-97,9.1c-44.4,12.2-81.8,36-113.6,69
		c-30.2,31.4-52.9,67.7-71.6,106.8c-22.6,47.2-38.5,96.8-51.2,147.4c-4.3,17.1-8,34.4-12,51.4c-9.7,2.3-45.4,2.6-60.9,0.7
		c-2.7-2.4-2.1-5.8-2-8.8c1-53.1,2-106,3-159.1c0.5-28.6,0.8-57.1,1.4-85.7c1.1-61.2,2.3-122.3,3.4-183.6c0.1-4,0.5-8.1,0.8-12.8
		c2.9-0.5,5.4-1.3,8-1.5c3.6-0.3,7.3-0.1,10.9-0.1c369.9,0,739.9,0,1109.9,0c5.8,0,11.7-0.5,17.5,0.8c0.5,3,1.3,5.2,1.4,7.3
		c2.6,146.4,5.2,292.8,7.7,439.2c0,1.3-0.7,2.4-1.1,3.6c-10.9,2-49.3,2.1-61.5,0c-1.2-4.9-2.4-10.2-3.5-15.4
		c-11.3-52.8-25.7-104.7-46.3-154.7c-13.1-31.9-28.7-62.6-48.2-91.1c-16.1-23.7-34.6-45.4-56.5-64c-39.2-33.3-84.3-52.4-135.5-57.4
		c-19-1.8-37.9-1.7-57.6-1.5c-0.6,3-1.5,5.4-1.6,8c-0.3,3.6-0.1,7.3-0.1,10.9c0,404.4,0,808.8,0,1213.2c0,5.8,0.2,11.6,0.3,17.6
		c5.5,2.3,10.5,1.5,15.4,1.5c58.9,0.1,117.9,0.1,176.8,0.1c5,0,9.9,0,15.1,0c0.8,2.3,1.8,3.8,1.8,5.4c0.1,19.5,0,39-0.1,58.5
		c0,0.8-0.6,1.6-1,2.4c-0.3,0.4-0.5,0.7-0.9,1c-0.4,0.2-0.9,0.4-1.3,0.4c-247.9,0.2-496,0.3-743.9,0.5c-2.3,0-4.5-0.1-6.8-0.4
		c-0.8-0.1-1.6-0.7-2.4-1.1c-2.1-9.8-2.4-51.6-0.3-65.4c4.4-2.2,9.3-1.3,14.1-1.3c58.9-0.1,117.9-0.1,176.8-0.1c4.9,0,9.9,0,15.4,0
		c0.5-3.4,1.2-6,1.3-8.5c0.2-4.1,0.1-8.2,0.1-12.2c0-403.5,0-807-0.1-1210.5C4688.1,1754,4689.1,1747.6,4687.1,1741.9z"/>
	<path d="M3433.8,2002.1c0.2,455.6-371.1,824.8-826.5,824.3c-449.4-0.5-824.1-363.9-823.9-825.5c0.2-465.6,381.3-829.1,832.7-824.9
		C3065.9,1180,3434.9,1546.7,3433.8,2002.1z M2594.7,2762.4c-2.5-5.4-4.4-9.4-6.3-13.4c-38.6-76.5-73.6-154.6-104.3-234.7
		c-49-127.6-86.5-258.6-116.9-391.7c-13.5-59.2-25.6-118.7-38.4-178c-0.5-2-1.5-3.9-2.7-6.9c-3,3.3-5.3,5.4-7.2,7.8
		c-63.8,81.4-123.9,165.4-177.9,253.7c-49.5,81-93.4,164.8-129.4,252.7c-2.2,5.4-4.1,10.9-6.3,16.6
		c78.4,100.1,174.9,176.1,290,228.8C2403.3,2746.4,2527.2,2765.8,2594.7,2762.4z M3206.2,2472.3c-4.4-1-8.6-2.1-13-3
		c-43.3-9.5-86.9-18.1-130-28.7c-134.8-33.4-265.5-78.8-393-133.9c-85.2-36.9-168.7-77.5-250.8-121c-4.4-2.3-8.7-4.4-14.8-7.5
		c0.8,5.4,1,8.9,1.9,12.2c13.1,47.6,25.4,95.4,39.5,142.7c43.2,145.5,100.4,285.3,169.8,420.2c1.8,3.5,4.1,6.9,6.3,10.5
		c3.2,0,5.9,0,8.5,0c40.9-0.7,81.3-5.3,121.5-13c108.8-20.9,208.4-63.6,298.7-127.8c56.1-39.9,105.8-86.6,149.3-140
		C3202.7,2479.9,3206.3,2477.4,3206.2,2472.3z M1989.9,2444.7c4.1-9.5,7.6-17.9,11.2-26.1c45-104.8,100.8-203.8,163.7-298.9
		c65.6-99.2,137.9-193.3,214.5-284.3c24.8-29.5,50.2-58.5,75.2-87.8c1.9-2.2,5.4-4,3.4-8.3c-2.1-0.2-4.3-0.5-6.5-0.5
		c-41.7,0.5-83.4,0.4-125.1,1.7c-53.9,1.8-107.8,4.4-161.5,9.7c-31.1,3-62.3,5.7-93.3,9.4c-45.9,5.4-91.6,12.2-137,20.8
		c-19.6,3.6-39.1,7.6-58,11.4c-12.5,29.7-30.4,115.4-30.8,204.2c-0.5,100.8,17.8,198.2,55.9,291.8
		C1924.1,2343.8,1969.2,2424.5,1989.9,2444.7z M1883,1766.7c4.4-0.5,7.3-0.8,10.3-1.4c37.9-6.6,75.7-14.1,113.8-19.7
		c40.8-5.9,81.8-10.6,122.8-14.7c41.4-4.1,83.1-7.5,124.7-9.8c48-2.5,96-3.8,144-4.9c72.6-1.5,145,0.4,217.6,2.2
		c4.1,0.1,8.2,0.4,12.2,0.5c28.9,1.4,58,2.6,86.9,3.9c3,0.1,6-0.2,10.3-0.3c-2.9-6.3-6.7-10-10.1-14.1
		c-74.6-90.7-153.1-178-235.9-261.4c-49.5-49.9-100.5-98.2-154.5-143.2c-3.1-2.5-6.3-4.9-9.2-7
		C2120.1,1375.3,1950.2,1551.7,1883,1766.7z M3354.2,1837.6c-3.7,3-5.5,4.3-7.1,5.8c-55.6,53.6-116.5,100.8-180.2,144.4
		c-87.2,59.7-178.8,112.1-272.9,160.2c-80.3,41.1-162.2,78.6-245.2,113.6c-3.2,1.4-6.2,2.9-9.6,4.6c11.1,8.1,48.2,24.2,123.6,54.1
		c149.1,58.9,302.4,103,459.7,131.7c39.5-38.6,103.1-171.2,126.1-263.3C3377.4,2072.9,3379.3,1956.6,3354.2,1837.6z M2344.9,1912.8
		c12.4,58.4,24.6,116,37,173.6c3.9,18.1,8.4,36.2,12.4,54.3c1,4.4,2.9,7.5,6.9,9.4c1.6,0.8,3.2,1.7,4.8,2.5
		c62.7,33.6,126,65.8,190.4,95.9c4.1,1.9,8.2,3.5,12.1,5.2c69.8-28.5,138-58.9,205.4-91.1c5.9-2.8,8.9-6.6,10.6-12.9
		c14.2-50.5,28.9-100.9,43.3-151.5c5.8-20.4,10.8-41.1,15.9-60.9c-18-33.7-117.3-170-138.8-190.4c-83.6-4.4-168.2-8.4-252.8-7.9
		C2441.7,1796.1,2392.8,1853.1,2344.9,1912.8z M2890.7,1904.6c1.8-6.2,3-9.5,3.8-13.1c5.6-26.1,11.4-52.2,16.6-78.4
		c10.6-53.3,19.5-107,25.4-161.1c3.7-34.2,7.3-68.5,9.8-102.8c2.3-30.7,3.9-61.6,4.5-92.3c0.7-41.3,0.3-82.4,0.2-123.7
		c0-4.9,0.7-10.1-2.2-14.4c-194.9-101.6-436.1-100.9-607.3-31c12.3,11.4,24.9,21.6,36.9,32.4c11.8,10.6,23.6,21.2,35.3,32
		c12,11.1,23.9,22.3,35.6,33.6c11.8,11.3,23.4,22.8,35,34.3c11.6,11.5,23,23.1,34.5,34.7c11.1,11.3,22.1,22.8,33,34.3
		c11.2,11.8,22.4,23.8,33.5,35.7c11.1,12,22,24,33,36.2c10.6,11.8,21.2,23.6,31.7,35.6c10.8,12.2,21.5,24.6,32.1,37
		c10.6,12.4,21.1,24.8,31.7,37.4c10.2,12.2,20.3,24.4,30.3,36.7c10.2,12.7,20.5,25.4,30.7,38.2c10.1,12.8,20.1,25.7,30,38.7
		c9.9,13,19.7,26,29.3,39.2c9.3,12.8,18.6,25.7,27.8,38.6C2870.7,1875.4,2879.9,1888.9,2890.7,1904.6z M2973.7,1332.7
		c0,6.6-0.1,12.1,0,17.4c1.3,78.9-0.8,157.7-7.7,236.3c-5.3,60-12.9,119.8-23.2,179.2c-14.9,86.2-34.6,171.3-58,255.7
		c-10.4,37.5-21.3,74.9-31.9,112.4c-0.8,2.8-3.2,5.7,0.5,8.9c3.1-1.4,6.4-2.6,9.6-4.4c35.3-18.5,70.8-36.6,105.7-55.9
		c81.5-44.8,160.4-93.6,235.3-148.8c44.9-33.1,88.1-68.4,128.1-107.3c5.2-5,10.8-9.6,15.1-16.4c-15-59.4-37.4-116.1-66.6-170.1
		c-43.4-80.6-99.8-151.1-168.4-211.7C3070.3,1391,3002.3,1343.8,2973.7,1332.7z"/>
</g>
</svg>
