<svg id="Layer_1" data-name="Layer 1" xmlns="http://www.w3.org/2000/svg" xmlns:xlink="http://www.w3.org/1999/xlink" viewBox="0 0 480 475"><defs><style>.cls-1,.cls-4,.cls-5,.cls-6,.cls-7,.cls-8{fill:none;}.cls-2{clip-path:url(#clip-path);}.cls-3{fill:#0a0c06;}.cls-4,.cls-5,.cls-6,.cls-7,.cls-8{stroke:#0a0c06;stroke-miterlimit:10;}.cls-4{stroke-width:0.35px;}.cls-5,.cls-6{stroke-width:1.76px;}.cls-6,.cls-7,.cls-8{stroke-linecap:round;}.cls-7{stroke-width:3.48px;}.cls-8{stroke-width:3.52px;}</style><clipPath id="clip-path"><rect class="cls-1" x="-24" y="-29" width="533" height="533"/></clipPath></defs><title>Artboard 1</title><g class="cls-2"><path class="cls-3" d="M254.24,377.34V391.4h-116V377.34h31.64V117.18H138.23V103.12h10.54s49.22,14.06,70.32,49.22v84.37h15.82v14.06H219.09V377.34Z"/></g><g class="cls-2"><path class="cls-4" d="M254.24,377.34V391.4h-116V377.34h31.64V117.18H138.23V103.12h10.54s49.22,14.06,70.32,49.22v84.37h15.82v14.06H219.09V377.34Z"/></g><g class="cls-2"><path class="cls-3" d="M241.94,236.71v14.06s22.85,3.52,26.37,14.07S271.82,300,271.82,300h14.07V187.49H271.82s.1,20.69-3.51,35.16c-3.52,14.06-26.37,14.06-26.37,14.06"/></g><g class="cls-2"><path class="cls-4" d="M241.94,236.71v14.06s22.85,3.52,26.37,14.07S271.82,300,271.82,300h14.07V187.49H271.82s.1,20.69-3.51,35.16C264.79,236.71,241.94,236.71,241.94,236.71Z"/></g><g class="cls-2"><path class="cls-3" d="M324.56,148.12h21.09V191H335.1s0-28.13-10.54-38.67Z"/></g><g class="cls-2"><path class="cls-4" d="M324.56,148.12h21.09V191H335.1s0-28.13-10.54-38.67Z"/></g><g class="cls-2"><path class="cls-3" d="M300,99.6s45.7-14.06,49.22,3.52-66.8,45.7-80.86,38.67l-3.52,3.51h80.86c28.13,0,7-14.07,7-17.58s4.9-6.55,3.52-17.58C352.68,82,300,99.6,300,99.6"/></g><g class="cls-2"><path class="cls-5" d="M300,99.6s45.7-14.06,49.22,3.52-66.8,45.7-80.86,38.67l-3.52,3.51h80.86c28.13,0,7-14.07,7-17.58s4.9-6.55,3.52-17.58C352.68,82,300,99.6,300,99.6"/></g><g class="cls-2"><path class="cls-6" d="M250.73,103.12s31.64-17.58,45.7-17.58a27.11,27.11,0,0,1,21.27,10.2M208.54,85.54s17.58-7,31.64-3.52S269.5,93.6,269.5,93.6m12.87,23.58s-16.77,37.29-42.19,45.7c-10.47,3.47-22.56-19.24-30.65-27.22-3.64-3.6-11.75-10.46-14.74-13-15.11-12.57-35.47-26.63-35.47-26.63-4.06-2.33-3.52-17.57,3.52-17.57s7.75,2.18,12.12,4.23m-4.17-2.4c6.8-4.12,12.63-3.81,26.69-3.81s19.12,6.18,19.12,6.18"/></g><g class="cls-2"><path class="cls-3" d="M157.56,94.33s-8.52,7.36-5.95,8c9.13,2.18,20.92,8.13,36.65,17.49a180.07,180.07,0,0,1,18.57,13.07s-10.86-10.64-31.3-24.69C160.61,97.93,157.91,94.33,157.56,94.33Z"/></g><g class="cls-2"><path class="cls-4" d="M157.56,94.33s-8.52,7.36-5.95,8c9.13,2.18,20.92,8.13,36.65,17.49a180.07,180.07,0,0,1,18.57,13.07s-10.86-10.64-31.3-24.69C160.61,97.93,157.91,94.33,157.56,94.33Z"/></g><g class="cls-2"><path class="cls-3" d="M243.7,199.8a5.28,5.28,0,1,1-5.28-5.28,5.28,5.28,0,0,1,5.28,5.28"/></g><g class="cls-2"><circle class="cls-6" cx="238.42" cy="199.8" r="5.27"/></g><g class="cls-2"><path class="cls-3" d="M243.7,217.38a5.28,5.28,0,1,1-5.28-5.28,5.28,5.28,0,0,1,5.28,5.28"/></g><g class="cls-2"><circle class="cls-6" cx="238.42" cy="217.38" r="5.27"/></g><g class="cls-2"><line class="cls-7" x1="238.42" y1="164.67" x2="238.42" y2="259.6"/></g><g class="cls-2"><path class="cls-3" d="M243.7,263.08a5.28,5.28,0,1,1-5.28-5.27,5.28,5.28,0,0,1,5.28,5.27"/></g><g class="cls-2"><circle class="cls-8" cx="238.42" cy="263.08" r="5.27"/></g><g class="cls-2"><path class="cls-3" d="M233.15,261.32s-3.52,15.82-3.52,21.1v45.7c0,3.52-1.75,40.43,0,42.19s17.58,1.76,19.34,0,0-43.95,0-56.25c0-7.86-1.76-28.13-1.76-35.16,0-1.76-3.51-17.58-3.51-17.58H233.15"/></g><g class="cls-2"><path class="cls-6" d="M233.15,261.32s-3.52,15.82-3.52,21.1v45.7c0,3.52-1.75,40.43,0,42.19s17.58,1.76,19.34,0,0-43.95,0-56.25c0-7.86-1.76-28.13-1.76-35.16,0-1.76-3.51-17.58-3.51-17.58Z"/></g><g class="cls-2"><polyline class="cls-3" points="24.04 317.1 14.73 290.84 22.49 288.3 28.02 303.89 34.33 301.82 29.6 288.51 36.9 286.12 41.62 299.44 56.38 294.6 60.16 305.27 24.04 317.1"/></g><g class="cls-2"><polyline class="cls-3" points="15.37 288.19 13.35 275.88 24.88 266.67 10.97 261.39 8.96 249.15 33.14 259.71 48.91 257.27 50.74 268.39 34.97 270.83 15.37 288.19"/></g><g class="cls-2"><path class="cls-3" d="M34.86,249.51l-.56-10.69a8.78,8.78,0,0,0,4.18-1.38,5.86,5.86,0,0,0,2.38-4.94,5.25,5.25,0,0,0-1.12-3.71,3.5,3.5,0,0,0-5.4-.11c-.79.82-1.56,2.74-2.29,5.74q-1.84,7.38-4.77,10.51a9.59,9.59,0,0,1-7.4,3.12,10.23,10.23,0,0,1-5.52-1.65,10.74,10.74,0,0,1-4-4.91,21.52,21.52,0,0,1-1.38-9q.09-7,2.87-10.6t8.69-4.3L21,228.22A6.1,6.1,0,0,0,17.24,230,5.5,5.5,0,0,0,16,233.69a4.29,4.29,0,0,0,.84,3,2.65,2.65,0,0,0,2.09,1,2.15,2.15,0,0,0,1.65-.8,9,9,0,0,0,1.46-3.76,45,45,0,0,1,3.52-10.52,10.71,10.71,0,0,1,9.94-6,12.49,12.49,0,0,1,6.73,2A12.16,12.16,0,0,1,46.88,224a20.9,20.9,0,0,1,1.47,8.76q-.14,9.27-3.92,12.82a15.19,15.19,0,0,1-9.57,4"/></g><g class="cls-2"><polyline class="cls-3" points="12.05 209.17 13.74 198.02 51.47 203 49.78 214.15 12.05 209.17"/></g><g class="cls-2"><polyline class="cls-3" points="15.14 189.29 18.48 178.5 32.3 182.31 21.98 167.18 26.41 152.84 36.27 169.37 63.14 162.36 59.03 175.65 41.72 178.86 46.11 186.12 55.04 188.58 51.7 199.38 15.14 189.29"/></g><g class="cls-2"><polyline class="cls-3" points="27.52 150.51 43.52 119.88 51.94 123.84 46.57 134.12 72.25 146.21 66.98 156.29 41.3 144.2 35.94 154.48 27.52 150.51"/></g><g class="cls-2"><polyline class="cls-3" points="45.91 116.32 64.24 91.71 70.86 96.18 59.39 111.59 64.32 114.91 74.97 100.62 81.3 104.89 70.65 119.18 76.77 123.31 88.58 107.45 95.61 112.19 76.95 137.25 45.91 116.32"/></g><g class="cls-2"><polyline class="cls-3" points="71.21 83.72 79.83 76.03 89.64 86.04 88.88 67.96 100.35 57.74 99.97 76.8 126.75 83.82 116.12 93.3 99.56 87.65 99.44 96.05 105.78 102.52 97.15 110.21 71.21 83.72"/></g><g class="cls-2"><polyline class="cls-3" points="109.28 51.62 118.68 46.13 141.89 56.1 130.96 38.97 140.46 33.43 160.21 64.41 150.71 69.94 127.66 60.06 138.5 77.07 129.03 82.59 109.28 51.62"/></g><g class="cls-2"><path class="cls-3" d="M164.5,42.34c1.1,3.51,2.58,5.84,4.42,7a7.56,7.56,0,0,0,6.33.67,7.23,7.23,0,0,0,4.92-3.89q1.28-2.84-.55-8.67-1.55-4.91-4.35-6.55a7.68,7.68,0,0,0-6.34-.63,7.13,7.13,0,0,0-4.76,3.89c-.9,1.94-.79,4.67.33,8.21m-11.3,3.24q-2.69-8.51.81-14.7t12.38-8.78q9.12-2.66,15.52.58t9,11.6a21.48,21.48,0,0,1,1,10.64,15.26,15.26,0,0,1-4.32,7.88,21.93,21.93,0,0,1-9.46,5.11A25.66,25.66,0,0,1,167.32,59a16.36,16.36,0,0,1-8.41-4A20.25,20.25,0,0,1,153.2,45.58Z"/></g><g class="cls-2"><polyline class="cls-3" points="191.93 16.32 203.56 14.51 208.02 41.55 226.18 38.73 227.63 47.57 197.84 52.2 191.93 16.32"/></g><g class="cls-2"><path class="cls-3" d="M240.1,29.16q-.19,5.5,1.86,8a8.38,8.38,0,0,0,11.71.35q2.16-2.3,2.37-8.4.18-5.13-1.93-7.54A7.45,7.45,0,0,0,248.32,19a7.38,7.38,0,0,0-5.8,2.26q-2.24,2.35-2.42,7.9m-11.78-.35q.31-8.89,5.68-13.72t14.64-4.59q9.51.24,14.49,5.26t4.68,13.76a21.62,21.62,0,0,1-2.62,10.4,15.75,15.75,0,0,1-6.71,6.18,22.35,22.35,0,0,1-10.66,2,25.34,25.34,0,0,1-10.61-2.23,15.6,15.6,0,0,1-6.62-6.37A19.71,19.71,0,0,1,228.32,28.81Z"/></g><g class="cls-2"><path class="cls-3" d="M290.28,40.56l1.92-7.34,17.66,4.11-3.95,15.06a39.53,39.53,0,0,1-10.16,2.41,33.06,33.06,0,0,1-9.54-1q-6.58-1.55-10.18-4.65a14.93,14.93,0,0,1-4.76-7.89A20.75,20.75,0,0,1,271.55,31a20.66,20.66,0,0,1,5.13-9.46,17,17,0,0,1,9-4.8,25.73,25.73,0,0,1,10.56.65,29.94,29.94,0,0,1,8.88,3.19,11.77,11.77,0,0,1,4.18,4.48,14.26,14.26,0,0,1,1.55,6.34l-11.52-.69a5.63,5.63,0,0,0-1.52-3.6,7.35,7.35,0,0,0-3.85-2,8,8,0,0,0-6.66,1.1C285.4,27.53,284,30,283,33.58q-1.5,5.73.1,8.72a8.09,8.09,0,0,0,5.66,3.92,12.94,12.94,0,0,0,3.8.33,22,22,0,0,0,4.46-.88l.87-3.33-7.64-1.78"/></g><g class="cls-2"><path class="cls-3" d="M311.39,47.9l10.38,4a7.83,7.83,0,0,0-.49,4.19,6,6,0,0,0,3.66,4.13,5.93,5.93,0,0,0,4,.6,3.6,3.6,0,0,0,2.45-1.8,3.21,3.21,0,0,0,0-2.82c-.43-1-1.92-2.49-4.45-4.39q-6.19-4.7-7.9-8.54a8.54,8.54,0,0,1,.23-7.7,9.82,9.82,0,0,1,3.95-4.06,11.7,11.7,0,0,1,6.41-1.42,24.53,24.53,0,0,1,9.09,2.58q6.57,3,8.81,6.95t.33,9.31l-10.27-4a5.37,5.37,0,0,0,0-4,5.75,5.75,0,0,0-3-2.62,4.84,4.84,0,0,0-3.17-.52,2.68,2.68,0,0,0-1.86,1.38,2,2,0,0,0,.06,1.77,9.18,9.18,0,0,0,2.93,2.83q6.21,4.62,8.45,7.47a10.63,10.63,0,0,1,2.53,5.63,9.84,9.84,0,0,1-1.1,5.49,11.88,11.88,0,0,1-4.79,5,13.32,13.32,0,0,1-7.15,1.7,23.83,23.83,0,0,1-8.95-2.42q-8.73-4-10.46-8.79a13.48,13.48,0,0,1,.36-9.93"/></g><g class="cls-2"><polyline class="cls-3" points="359.57 45.2 385.16 62.67 380.4 68.99 364.38 58.05 360.83 62.75 375.7 72.9 371.15 78.94 356.28 68.79 351.88 74.63 368.37 85.88 363.32 92.58 337.26 74.8 359.57 45.2"/></g><g class="cls-2"><polyline class="cls-3" points="392.84 69.88 400.84 78.08 390.26 87.47 409.22 86.68 419.85 97.58 399.87 97.28 392.3 122.86 382.44 112.75 388.5 96.94 379.69 96.86 372.86 102.93 364.86 94.72 392.84 69.88"/></g><g class="cls-2"><polyline class="cls-3" points="422.63 101.03 441.05 130.21 432.97 134.87 426.8 125.08 402.18 139.29 396.12 129.69 420.74 115.48 414.56 105.69 422.63 101.03"/></g><g class="cls-2"><polyline class="cls-3" points="443.7 136.44 448.27 146.79 413.14 161.07 408.56 150.72 443.7 136.44"/></g><g class="cls-2"><path class="cls-3" d="M439.55,169.94c-3.79.61-6.41,1.72-7.84,3.32a6.78,6.78,0,0,0-1.55,5.91,6.87,6.87,0,0,0,3.38,5.13q2.77,1.56,9.09.55,5.31-.85,7.4-3.31a7.34,7.34,0,0,0-1.89-10.89q-2.83-1.64-8.59-.71m-1.84-11.08q9.21-1.49,15.18,2.58t7.46,12.79q1.53,9-2.69,14.6T444.37,196a24.5,24.5,0,0,1-11.19-.39,15.91,15.91,0,0,1-7.62-5.05,19.88,19.88,0,0,1-4-9.58,22.26,22.26,0,0,1,.3-10.37,15.44,15.44,0,0,1,5.32-7.46,22.23,22.23,0,0,1,10.56-4.24Z"/></g><g class="cls-2"><polyline class="cls-3" points="464.67 197.89 465.75 208.32 446.18 224.04 467.17 221.94 468.26 232.47 430.33 236.26 429.23 225.73 448.65 210.11 427.83 212.19 426.74 201.69 464.67 197.89"/></g><g class="cls-2"><polyline class="cls-3" points="468.12 243 466.17 273.06 458.05 272.63 459.27 253.81 453.22 253.49 452.09 270.94 444.33 270.53 445.46 253.07 437.96 252.67 436.71 272.03 428.09 271.57 430.08 240.97 468.12 243"/></g><g class="cls-2"><polyline class="cls-3" points="464.27 282.61 461.45 292.76 437.38 300.97 457.77 306.01 454.92 316.26 418.08 307.14 420.93 296.89 444.82 288.72 424.59 283.72 427.43 273.49 464.27 282.61"/></g><g class="cls-2"><path class="cls-3" d="M110.08,408.59l5.7,8.61a20.67,20.67,0,0,1-7.47,3,16,16,0,0,1-7.24-.44,21.82,21.82,0,0,1-7.41-4.24,23.65,23.65,0,0,1-6.48-7.6,13.79,13.79,0,0,1-.78-8.65C87,396,89,392.67,92.22,389.4q6.5-6.54,13.78-6.91t14.32,5.39q5.46,4.5,6.58,9.08t-1.48,10l-9.48-4.9a7.91,7.91,0,0,0,.88-2.48,5.8,5.8,0,0,0-.41-3,6.41,6.41,0,0,0-1.93-2.5,7.58,7.58,0,0,0-6.87-1.61c-1.91.43-4,1.83-6.38,4.19q-4.35,4.38-4.51,7.23a5.9,5.9,0,0,0,2.5,5,7,7,0,0,0,5.17,1.88,12.66,12.66,0,0,0,5.69-2.24"/></g><g class="cls-2"><polyline class="cls-3" points="133.59 398.25 143.9 403.95 136.81 414.57 148.06 420.8 155.15 410.18 165.5 415.9 145.25 446.26 134.9 440.54 143.09 428.26 131.84 422.03 123.65 434.31 113.35 428.61 133.59 398.25"/></g><g class="cls-2"><path class="cls-3" d="M176.92,442.35l.61-13.35-8.71,10.74,8.1,2.61m-.43,8-12.94-4.17-3.93,5L148,447.4l26.82-29,12.39,4L188,460.3l-11.89-3.83Z"/></g><g class="cls-2"><polyline class="cls-3" points="199.34 425.4 211.16 427.54 205.42 453.8 223.87 457.15 221.99 465.73 191.72 460.24 199.34 425.4"/></g><g class="cls-2"><polyline class="cls-3" points="227.59 429.73 243.42 429 250.73 450.31 255.62 428.44 271.4 427.72 273.37 463.2 263.54 463.65 262.04 436.59 255.91 464 247.01 464.41 237.91 437.7 239.41 464.76 229.56 465.21 227.59 429.73"/></g><g class="cls-2"><polyline class="cls-3" points="275.97 426.56 306.75 417.67 309.27 424.89 290 430.47 291.88 435.85 309.75 430.68 312.16 437.58 294.28 442.75 296.61 449.43 316.44 443.69 319.11 451.36 287.77 460.43 275.97 426.56"/></g><g class="cls-2"><path class="cls-3" d="M330.11,423l4.46-2.22a17.55,17.55,0,0,0,2.55-1.82,2.79,2.79,0,0,0,1.12-1.82,3,3,0,0,0-.41-2.15,3.52,3.52,0,0,0-2.44-1.79q-1.53-.29-4.43,1.15l-4.65,2.31,3.8,6.34m.5,23.83-18.69-31.18,17.62-8.77a31.09,31.09,0,0,1,8-3,9.9,9.9,0,0,1,5.89.77,10.33,10.33,0,0,1,4.61,4.25,8.77,8.77,0,0,1,0,9.79,13.69,13.69,0,0,1-3,3.08,13.59,13.59,0,0,1,3.44-.22,12.72,12.72,0,0,1,2.66.8,16.08,16.08,0,0,1,2.66,1.19l10.53,6.5L352.33,436,341,429.28a9.42,9.42,0,0,0-3.35-1.45,5.51,5.51,0,0,0-3,.57l-.93.46,7.59,12.65Z"/></g><g class="cls-2"><path class="cls-3" d="M359.38,417.5l8.72-6.81a8.87,8.87,0,0,0,3.78,2.27,6.81,6.81,0,0,0,5.67-1.2,5.38,5.38,0,0,0,2.45-3,3.08,3.08,0,0,0-.58-2.83,3.71,3.71,0,0,0-2.69-1.24c-1.19-.1-3.29.49-6.29,1.74q-7.41,3-11.88,2.75a9.79,9.79,0,0,1-7.25-3.6,8.82,8.82,0,0,1-2-5.07,9.82,9.82,0,0,1,1.65-5.93,23.08,23.08,0,0,1,6.74-6.39q6-4.11,10.78-4.22t9.05,3.86l-8.67,6.71a6.26,6.26,0,0,0-3.83-1.73,6.41,6.41,0,0,0-3.91,1.31,4.39,4.39,0,0,0-2,2.4,2.2,2.2,0,0,0,2.15,2.89,10.73,10.73,0,0,0,4.1-1.17,52.37,52.37,0,0,1,11.11-3.69,12.69,12.69,0,0,1,6.56.41,10.77,10.77,0,0,1,4.73,3.34,10.67,10.67,0,0,1,2.51,6.17,11,11,0,0,1-1.73,6.68,22.45,22.45,0,0,1-6.52,6.33q-7.95,5.46-13.31,4.77a15.59,15.59,0,0,1-9.33-4.71"/></g><g class="cls-2"><path class="cls-3" d="M430.61,345.37a17.94,17.94,0,1,1-.35-.5l.35.5"/></g><g class="cls-2"><path class="cls-3" d="M78.15,346.09a18.12,18.12,0,1,1-.35-.49l.35.49"/></g></svg>