<?xml version="1.0" encoding="UTF-8" standalone="no"?>
<!-- Created with Inkscape (http://www.inkscape.org/) -->

<svg
   width="7305.9922"
   height="2333.175"
   viewBox="0 0 1933.041 617.31996"
   version="1.1"
   id="svg5"
   inkscape:version="1.1.2 (b8e25be833, 2022-02-05)"
   sodipodi:docname="Foton-logga.svg"
   xmlns:inkscape="http://www.inkscape.org/namespaces/inkscape"
   xmlns:sodipodi="http://sodipodi.sourceforge.net/DTD/sodipodi-0.dtd"
   xmlns="http://www.w3.org/2000/svg"
   xmlns:svg="http://www.w3.org/2000/svg">
  <sodipodi:namedview
     id="namedview7"
     pagecolor="#ffffff"
     bordercolor="#666666"
     borderopacity="1.0"
     inkscape:pageshadow="2"
     inkscape:pageopacity="0.0"
     inkscape:pagecheckerboard="0"
     inkscape:document-units="px"
     showgrid="false"
     inkscape:zoom="0.16013082"
     inkscape:cx="1289.5706"
     inkscape:cy="752.50972"
     inkscape:window-width="2880"
     inkscape:window-height="1711"
     inkscape:window-x="-9"
     inkscape:window-y="-9"
     inkscape:window-maximized="1"
     inkscape:current-layer="layer1"
     units="px"
     height="2669px" />
  <defs
     id="defs2" />
  <g
     inkscape:label="Lager 1"
     inkscape:groupmode="layer"
     id="layer1">
    <path
       style="fill:#000000;stroke-width:1"
       d="m 587.63962,616.86292 c -23.94794,-0.532 -52.09389,-1.3767 -61.25104,-1.8383 -1.60073,-0.081 -6.48229,-0.3257 -10.84792,-0.5446 -62.90585,-3.1536 -100.46046,-9.8435 -114.3,-20.361 -3.78846,-2.8791 -6.33158,-5.9367 -8.46423,-10.1765 -9.93553,-19.7522 -15.81388,-74.6343 -15.11969,-141.1623 0.79793,-76.4715 8.65359,-141.3081 20.85316,-172.1115 4.17541,-10.5427 7.99499,-15.9123 14.33229,-20.1484 14.01564,-9.3686 36.32761,-14.949 69.89014,-17.48009 6.28774,-0.47419 34.53503,-0.41473 41.07278,0.0864 l 4.82486,0.36989 2.35283,-7.14465 c 9.96874,-30.27113 17.90499,-45.948 29.29708,-57.87195 1.98093,-2.07344 2.12013,-2.16463 4.44971,-2.91517 24.64911,-7.94134 48.8265,-8.88536 73.05961,-2.85266 2.90435,0.72302 6.41172,1.67411 7.79417,2.11354 l 2.51354,0.79895 3.21165,4.30175 c 11.83566,15.85292 19.22335,30.88838 28.15862,57.30843 l 2.44645,7.23376 1.08331,-0.14682 c 6.32092,-0.85659 38.60165,-1.17748 48.57601,-0.48286 27.90397,1.94318 47.88414,5.71498 62.16433,11.73508 5.53654,2.3341 11.37465,6.0438 14.21207,9.0309 10.10113,10.6338 18.08385,38.4495 23.63261,82.3474 4.82021,38.1342 7.25212,88.0922 6.39765,131.4256 -0.33134,16.8034 -0.52162,22.1199 -1.24296,34.7273 -2.43102,42.4886 -7.92723,72.139 -15.59933,84.1536 -1.26534,1.9816 -4.50752,5.3343 -6.74978,6.9799 -9.97792,7.323 -30.37118,12.6029 -62.83855,16.269 -28.82788,3.2551 -63.8471,5.0845 -119.19479,6.2266 -7.05776,0.1457 -15.41224,0.337 -18.56549,0.4252 l -5.7332,0.1604 -0.11774,-0.6188 c -0.11716,-0.6157 -0.11793,-0.6158 -0.15378,-0.024 -0.0424,0.7004 2.14125,0.6804 -20.14437,0.1853 z m 48.37663,-7.5272 c 34.95109,-0.8377 56.65491,-1.6622 76.77129,-2.9163 47.1882,-2.9417 78.01292,-8.0341 92.47187,-15.2768 7.06477,-3.5388 10.35529,-7.3488 13.19498,-15.2779 6.2333,-17.4048 10.0528,-47.1005 11.85969,-92.2064 0.44484,-11.1047 0.44405,-53.2853 0,-65.2198 -2.52921,-67.7887 -9.44912,-118.3613 -19.82126,-144.8594 -2.4171,-6.175 -5.99869,-12.3667 -8.43714,-14.5856 -2.00607,-1.8255 -6.47401,-4.5249 -10.46001,-6.3197 -17.98855,-8.0999 -55.13274,-12.9906 -90.43292,-11.9072 -8.94366,0.2745 -11.90085,0.4342 -20.32243,1.0975 -2.21919,0.1748 -4.08411,0.2682 -4.14428,0.2076 -0.0602,-0.061 -1.59401,-4.5751 -3.40849,-10.03214 -5.34033,-16.06083 -8.35816,-23.75832 -13.14246,-33.52223 -4.42632,-9.03334 -8.73623,-16.15943 -14.22017,-23.51191 l -2.38037,-3.19142 -4.07321,-1.10125 c -10.98907,-2.97103 -19.60867,-4.23879 -30.44939,-4.47847 -13.72439,-0.30343 -26.44534,1.50903 -40.03572,5.70423 -2.34796,0.72479 -2.78545,0.96028 -3.86887,2.08256 -4.61489,4.78038 -9.67581,12.35716 -13.92319,20.84453 -4.54197,9.07605 -7.95007,17.8423 -13.62938,35.05729 -2.04033,6.18461 -3.74187,11.28401 -3.78121,11.33191 -0.0393,0.048 -2.25478,-0.099 -4.92326,-0.3258 -16.45883,-1.4007 -36.03652,-1.4045 -52.21219,-0.01 -22.6912,1.9561 -41.86375,6.3154 -53.71042,12.2121 -3.77735,1.8802 -8.58435,5.1138 -10.11944,6.8072 -16.1081,17.7691 -27.84215,98.5644 -27.84173,191.7055 0,68.86 6.77106,121.5042 17.15352,133.3729 5.86872,6.7088 18.85929,11.4354 42.10661,15.3203 28.58971,4.7777 67.9691,7.4324 131.49792,8.8647 9.96818,0.2248 19.37411,0.4502 20.90208,0.5011 4.1868,0.1393 27.20793,-0.075 39.3808,-0.367 z m -37.26413,-11.0306 c -36.0812,-1.6873 -71.29312,-15.03 -99.61563,-37.747 -6.84778,-5.4924 -16.20699,-14.4547 -21.72967,-20.8081 -24.50039,-28.1857 -38.83025,-62.0752 -42.07285,-99.5006 -0.60362,-6.9669 -0.60216,-20.7165 0.003,-27.7467 4.30432,-50.0087 29.15399,-94.7413 69.09126,-124.3732 25.6037,-18.997 55.29275,-30.2167 87.97396,-33.2461 6.81357,-0.6316 22.29059,-0.6316 29.10416,0 18.61971,1.726 35.93505,6.0255 52.59734,13.0603 5.28953,2.2332 15.76213,7.5247 20.55995,10.3883 28.65099,17.1004 51.4544,41.6319 66.16324,71.1773 10.38352,20.8572 16.2673,42.6397 17.83263,66.0188 0.34375,5.1338 0.34356,16.9238 0,21.8281 -1.75382,25.0123 -8.43103,48.4825 -19.90333,69.9597 -11.90853,22.2939 -28.40136,41.5618 -48.4818,56.6395 -27.31694,20.5113 -59.7235,32.3156 -94.05938,34.2619 -4.23436,0.2401 -13.23882,0.2853 -17.4625,0.088 z m 20.24063,-8.544 c 22.12943,-1.7366 42.12844,-7.31 61.7802,-17.2171 17.29569,-8.7193 31.84576,-19.6135 45.56567,-34.1169 17.81085,-18.828 30.99586,-42.1301 38.17581,-67.4688 15.09688,-53.2783 2.19458,-110.6039 -34.31429,-152.4606 -3.00189,-3.4416 -10.33367,-10.8216 -14.10531,-14.198 -36.44307,-32.6242 -85.44237,-47.2081 -133.87917,-39.8471 -20.99492,3.1907 -41.47055,10.5701 -59.66354,21.5027 -26.66328,16.0226 -48.09223,39.1545 -62.06646,66.9988 -9.11701,18.1661 -14.35497,36.2588 -16.6986,57.6792 -0.68934,6.3005 -0.68934,25.1849 0,31.4854 2.3394,21.3817 7.4989,39.2604 16.56898,57.4146 25.17434,50.3877 73.87987,84.0129 130.11769,89.8305 8.83875,0.9143 19.95646,1.0692 28.51902,0.3973 z m -19.96596,-45.0161 c -51.57719,-2.9493 -95.67024,-39.3573 -108.51375,-89.6008 -2.75045,-10.7596 -3.86117,-20.7022 -3.59807,-32.2078 0.28837,-12.6108 2.16006,-23.5371 6.00535,-35.0573 9.90613,-29.6778 31.25737,-54.4639 59.13345,-68.6463 12.43169,-6.3249 25.8181,-10.3717 40.34835,-12.1976 4.53067,-0.5694 17.84895,-0.8054 22.91723,-0.4061 19.47267,1.534 37.82497,7.6033 54.3411,17.9711 18.93795,11.8881 34.27312,29.0333 43.93775,49.1237 6.07033,12.6189 9.55301,24.8088 11.26315,39.423 0.57589,4.9214 0.66453,18.998 0.14912,23.6802 -2.00351,18.1997 -6.90864,33.5462 -15.47596,48.4187 -14.23585,24.7129 -37.40867,43.8695 -64.28446,53.143 -14.87263,5.1318 -30.36959,7.2628 -46.22326,6.3562 z m 5.23509,-8.8976 c -0.0498,-0.1092 -0.58131,-1.151 -1.18112,-2.3151 -3.6893,-7.1606 -9.48235,-20.0072 -13.12424,-29.1042 -9.21601,-23.0206 -16.81569,-49.8214 -23.22044,-81.8885 -0.59584,-2.9832 -1.16914,-5.6407 -1.27402,-5.9055 -0.16475,-0.416 -0.29792,-0.34 -0.97896,0.5589 -13.97346,18.4417 -19.93984,27.0098 -27.02983,38.8164 -6.99431,11.6472 -14.10086,25.7337 -18.04586,35.7703 l -0.54025,1.3745 1.69466,2.0989 c 19.22574,23.8124 48.39375,38.7493 79.11634,40.5154 1.89177,0.1087 3.7174,0.2156 4.05694,0.2375 0.33957,0.022 0.57661,-0.05 0.52678,-0.1586 z m 13.10127,-0.4881 c 19.64706,-1.9299 38.90066,-9.4305 54.81085,-21.3526 7.40164,-5.5464 13.73089,-11.6777 20.43128,-19.7924 0.31451,-0.3809 -0.0217,-0.498 -3.29364,-1.147 -35.62226,-7.0654 -70.19012,-19.667 -107.42671,-39.1619 -2.94679,-1.5428 -5.35781,-2.7196 -5.35781,-2.615 0,0.4936 2.88171,11.2618 4.65685,17.4015 6.20692,21.468 13.19456,39.5802 22.99023,59.5916 l 3.77693,7.7157 2.7427,-0.1271 c 1.50846,-0.07 4.50966,-0.3006 6.66932,-0.5128 z m 79.73756,-47.2692 c 16.43687,-24.0086 22.77893,-53.4715 17.64123,-81.9547 -0.38061,-2.1101 -0.74721,-3.9294 -0.81471,-4.0431 -0.0675,-0.1136 -1.39332,1.0066 -2.94629,2.4895 -11.22879,10.7216 -29.94189,23.8431 -49.65486,34.8176 -14.26699,7.9427 -34.32582,17.6581 -48.4849,23.4836 -1.34606,0.5538 -2.44562,1.0793 -2.44345,1.1677 0.006,0.2259 8.48831,3.8819 15.86995,6.8399 15.9385,6.3868 31.97614,11.5651 47.7584,15.4203 7.16309,1.7498 19.46323,4.4074 20.66314,4.4647 0.4187,0.02 1.01026,-0.6388 2.41149,-2.6855 z m -179.10469,-1.3891 c 12.18134,-29.0624 33.21349,-60.4184 64.55495,-96.2422 l 2.48838,-2.8442 h -4.85143 c -14.22516,0 -33.68897,1.0792 -48.1108,2.6644 -9.38205,1.0313 -23.76376,3.2927 -30.63483,4.8171 l -1.49294,0.3312 -0.85929,3.4356 c -1.07394,4.2938 -2.0516,9.699 -2.65533,14.6804 -0.64069,5.2864 -0.63659,19.1757 0.007,24.3416 2.28195,18.3112 8.16885,34.3735 17.97243,49.0374 1.15168,1.7227 2.12929,3.0919 2.17244,3.0427 0.0432,-0.049 0.67731,-1.5182 1.40923,-3.2644 z m 96.93913,-28.2653 c 6.40321,-2.7433 16.27553,-7.2266 20.06489,-9.112 l 1.98437,-0.9873 0.61413,-1.9843 c 2.32055,-7.4983 8.24941,-29.0454 8.24941,-29.9807 0,-0.8752 -9.48105,-14.3273 -16.11513,-22.8649 l -3.52253,-4.5332 -1.62438,-0.1508 c -3.55262,-0.3298 -27.43245,-1.1951 -33.24633,-1.2047 h -1.98861 l -2.37701,2.7103 c -4.38576,5.0005 -11.87093,13.7963 -15.41466,18.1137 l -3.5126,4.2794 1.21787,6.0353 c 1.26072,6.2476 4.07514,19.2858 5.35395,24.8028 l 0.73179,3.1571 2.37434,1.2976 c 4.71623,2.5775 15.99809,8.3076 22.06755,11.2082 l 6.19942,2.9627 1.25236,-0.4936 c 0.68879,-0.2715 4.1498,-1.735 7.69117,-3.2523 z m 38.8503,-18.6319 c 22.02675,-11.8481 39.66676,-23.7687 53.18125,-35.9383 1.81902,-1.638 3.9342,-3.6186 4.70041,-4.4014 l 1.39308,-1.4233 -1.04857,-3.5859 c -7.71303,-26.3768 -25.45532,-49.2581 -49.28494,-63.5601 -1.84907,-1.1097 -3.45641,-2.0176 -3.57188,-2.0175 -0.11549,10e-5 -0.22069,4.5542 -0.23378,10.1203 -0.077,32.7161 -4.35063,60.1582 -15.32163,98.3848 -1.38266,4.8177 -2.51394,8.8075 -2.51394,8.8663 0,0.1708 7.08573,-3.4251 12.7,-6.4449 z m -5.42215,-34.0368 c 3.20487,-14.7292 5.38519,-29.4028 6.47144,-43.5524 0.59148,-7.7045 0.80013,-14.0642 0.80145,-24.4262 l 0.003,-10.8002 -2.97656,-1.4137 c -10.09844,-4.7962 -21.24552,-7.9658 -33.66823,-9.5734 -2.94548,-0.3811 -5.57385,-0.4799 -12.83229,-0.4824 -9.75458,0 -12.40984,0.2097 -20.10834,1.6128 -5.59445,1.0197 -15.14716,3.6352 -18.04575,4.9409 l -0.71553,0.3224 2.78257,2.3578 c 10.6858,9.0548 28.28316,26.7839 41.77929,42.0922 12.03928,13.6558 24.1903,28.9938 32.26131,40.7228 1.59295,2.315 2.93007,4.1006 2.9714,3.9681 0.0413,-0.1325 0.61637,-2.7284 1.27789,-5.7687 z m -142.74451,-14.8246 c 16.24576,-3.0467 31.79913,-4.8279 52.25521,-5.9842 13.06581,-0.7385 45.08666,-0.5839 60.6938,0.2931 2.53119,0.1423 4.6359,0.2249 4.67712,0.1836 0.1189,-0.1189 -7.38741,-9.0458 -12.96191,-15.4151 -10.10563,-11.5464 -21.4384,-23.4376 -30.84547,-32.3654 -5.29199,-5.0224 -14.07742,-12.8363 -15.19396,-13.5138 -0.74317,-0.4509 -1.28871,-0.2473 -7.16333,2.6734 -18.67612,9.2852 -34.56239,23.9008 -45.38041,41.7506 -3.73528,6.1632 -7.60582,14.397 -9.8179,20.8855 -0.89905,2.6372 -0.87704,2.4674 -0.29805,2.2978 0.25466,-0.075 2.07037,-0.437 4.0349,-0.8055 z M 4e-5,597.03232 v -16.8011 H 42.33337 84.6667 V 306.91662 33.60208 H 42.33337 4e-5 V 16.80104 0 H 235.4792 c 234.57625,0 235.47917,0.002 235.47917,0.52431 0,0.90818 8.9598,172.52973 9.13413,174.96058 l 0.166,2.3151 H 465.45464 450.65078 L 450.336,175.22031 C 447.03842,148.19634 441.89699,122.84432 436.13949,105.21828 426.21029,74.82093 410.28256,55.87337 385.97264,45.54003 369.69272,38.61997 345.72219,34.87321 311.28233,33.86541 306.48014,33.72489 272.04131,33.60815 234.7516,33.606 l -67.79948,-0.004 v 128.71979 128.71975 h 33.40365 c 18.372,0 36.97552,-0.1213 41.34114,-0.2671 12.73464,-0.4254 24.91084,-1.3105 31.22084,-2.2693 23.43123,-3.5606 37.39607,-16.7614 44.75165,-42.3032 3.78653,-13.14845 6.90885,-34.53544 8.49876,-58.21353 l 0.19542,-2.91041 15.0151,-0.0683 15.01511,-0.0683 v 127.26674 127.2668 h -14.94391 -14.94393 l -0.12369,-0.5953 c -0.068,-0.3274 -0.19569,-2.0836 -0.28369,-3.9026 -0.39478,-8.1592 -1.56726,-21.8983 -2.66433,-31.2209 -2.93094,-24.9061 -7.03757,-40.1471 -13.86154,-51.4446 -4.78666,-7.9245 -11.85183,-14.3529 -20.23708,-18.4131 -9.16713,-4.4387 -18.41992,-6.1057 -42.74392,-7.7007 -2.62636,-0.1723 -19.36026,-0.3366 -42.00287,-0.4124 l -37.63726,-0.1261 0.0664,127.2209 0.0664,127.2208 44.38386,0.067 44.38385,0.067 v 16.8003 16.8003 H 127.92604 0 v -16.8011 z m 1494.63126,-0.1323 v -16.9334 h 31.6177 31.6177 v -146.1822 -146.1823 h -31.6177 -31.6177 v -16.9334 -16.9333 h 69.7177 69.7178 v 30.6917 30.6916 h 0.7708 c 0.7254,0 0.8948,-0.2374 2.8795,-4.0349 6.7535,-12.9216 14.7122,-23.8689 24.3872,-33.5446 18.6464,-18.6479 39.8693,-29.0618 67.874,-33.3053 15.1655,-2.298 36.4073,-2.4679 51.726,-0.4136 22.8616,3.0659 40.7596,10.2344 54.9771,22.0196 3.1999,2.6524 8.9856,8.5636 11.7343,11.9885 3.8307,4.7734 7.9022,11.1234 10.6861,16.6665 5.4433,10.8383 9.5394,25.0141 11.3724,39.3581 1.3629,10.6657 1.2835,3.2124 1.3774,129.234 l 0.087,116.8796 h 30.5536 30.5537 v 16.9334 16.9333 h -97.1021 -97.1021 v -16.9333 -16.9334 h 28.4427 28.4427 v -120.7161 c 0,-80.6357 -0.093,-121.7703 -0.2755,-123.8911 -1.5119,-17.5992 -6.5671,-30.2925 -15.6625,-39.3274 -9.0418,-8.9818 -20.4677,-13.9189 -35.4678,-15.3256 -4.9236,-0.4617 -16.4587,-0.1818 -21.0873,0.5117 -12.3351,1.8483 -23.4227,5.8097 -33.9529,12.1308 -10.161,6.0995 -20.3064,15.9957 -27.6074,26.9292 -5.8282,8.7282 -11.5731,20.7388 -15.6925,32.8083 -6.7726,19.8431 -10.38,40.2827 -11.646,65.9862 -0.1652,3.3536 -0.2658,34.8308 -0.2658,83.1453 v 77.7487 h 28.4427 28.4427 v 16.9334 16.9333 h -98.1605 -98.1604 v -16.9333 z M 1003.3,613.38632 c -33.79821,-1.5805 -58.62547,-12.1806 -74.13939,-31.6541 -13.35392,-16.7622 -19.96755,-37.8442 -21.11139,-67.2959 -0.1532,-3.945 -0.25683,-52.9884 -0.25943,-122.7868 l -0.004,-116.2183 h -31.6177 -31.61771 v -16.801 -16.8011 h 31.61688 31.61687 l 0.067,-41.06585 0.067,-41.06588 37.57083,-6.27818 c 20.66396,-3.453 37.77919,-6.28554 38.03385,-6.29453 0.43932,-0.0155 0.46302,2.40907 0.46302,47.34406 v 47.36038 h 54.90107 54.901 v 16.8011 16.801 h -54.901 -54.90107 l 0.004,123.7589 c 0.003,79.8331 0.0982,125.1675 0.26927,127.7276 0.52779,7.8986 1.76361,15.218 3.35044,19.8437 3.68266,10.7352 9.85044,18.3118 18.20436,22.3627 4.3393,2.1041 9.2289,3.1598 17.1979,3.7129 11.6076,0.8056 23.2228,-0.9662 30.7951,-4.6976 10.1085,-4.9812 18.6013,-13.9769 24.7254,-26.1895 3.5251,-7.0297 8.2899,-19.2975 11.1878,-28.8046 0.8403,-2.7572 1.5587,-5.0577 1.5962,-5.1123 0.226,-0.3286 11.6193,2.1231 16.6267,3.5779 5.2999,1.5398 13.6263,5.1377 13.6257,5.8879 0,1.4786 -3.3729,13.5205 -5.8037,20.7274 -2.4449,7.249 -4.5794,12.4968 -7.6683,18.854 -5.3538,11.0181 -10.5084,18.8505 -17.8248,27.0846 -17.3446,19.52 -44.7296,29.6391 -79.431,29.3504 -3.2014,-0.027 -6.5947,-0.085 -7.5406,-0.1289 z m 294.6136,0 c -31.7773,-1.0716 -58.8013,-7.9763 -82.734,-21.1387 -30.1278,-16.5695 -53.0479,-40.4732 -68.6076,-71.552 -11.695,-23.3594 -17.8845,-46.9731 -20.5627,-78.4491 -0.5347,-6.2839 -0.4472,-29.2938 0.1373,-36.1156 3.3963,-39.6366 14.5837,-72.4687 34.3493,-100.8063 19.1916,-27.5146 44.5193,-47.7488 76.3702,-61.0119 26.9374,-11.21709 59.6579,-15.95451 92.9298,-13.45478 29.8757,2.2446 55.0865,9.90038 79.2427,24.06378 17.6217,10.3321 33.0746,23.9788 45.418,40.1095 10.2932,13.4515 18.7154,28.7661 24.6495,44.8216 7.4717,20.2157 11.4301,38.3575 13.4223,61.5156 0.4539,5.2751 0.6242,23.4816 0.2774,29.6333 -1.4141,25.0774 -6.1553,47.251 -14.9514,69.9229 -10.8878,28.0635 -28.4329,52.8011 -50.4358,71.1115 -20.1385,16.7589 -44.167,29.0463 -69.0477,35.3089 -18.4082,4.6333 -39.5532,6.7463 -60.4573,6.0413 z m 22.4896,-32.5017 c 20.0906,-1.6681 35.7431,-7.0985 48.2864,-16.7522 2.766,-2.1289 9.058,-8.3878 11.4827,-11.4223 11.5711,-14.482 19.6072,-35.702 24.4985,-64.6907 3.0504,-18.0779 4.3954,-35.7794 4.6743,-61.5156 0.5583,-51.5392 -4.5298,-87.8897 -16.0843,-114.9102 -6.7713,-15.8349 -15.8403,-27.4551 -27.4995,-35.2357 -8.2458,-5.5027 -20.2838,-9.9526 -32.9227,-12.1701 -13.8666,-2.4328 -31.5191,-2.4266 -45.9052,0.016 -7.7935,1.3233 -16.3937,3.8023 -22.319,6.4335 -22.9776,10.2035 -38.7851,32.7971 -47.5006,67.8926 -5.3666,21.61 -7.9642,49.2255 -7.9642,84.6666 0,47.244 4.7687,80.8689 15.0871,106.3804 5.1472,12.7259 11.2546,22.2962 19.4125,30.4192 8.9269,8.8888 18.8196,14.3028 32.3609,17.7102 13.0022,3.2717 29.254,4.4353 44.3931,3.1783 z"
       id="path836" />
  </g>
</svg>
